<svg xmlns="http://www.w3.org/2000/svg" xmlns:svg="http://www.w3.org/2000/svg" xmlns:xlink="http://www.w3.org/1999/xlink" id="svg" width="32" height="32" version="1.1" viewBox="0 0 32 32"><defs id="defs"><linearGradient id="Prompt"><stop style="stop-color:#000;stop-opacity:0" id="stop5232" offset="0"/><stop style="stop-color:#000;stop-opacity:.5" id="stop5234" offset="1"/></linearGradient><linearGradient id="Keybar"><stop style="stop-color:#000;stop-opacity:.25" id="stop5220" offset="0"/><stop style="stop-color:#000;stop-opacity:.33333334" id="stop5222" offset="1"/></linearGradient><linearGradient id="Panels"><stop style="stop-color:#000;stop-opacity:0" id="stop5170" offset="0"/><stop style="stop-color:#000;stop-opacity:.5" id="stop5172" offset="1"/></linearGradient><linearGradient id="Grid"><stop id="stop5118" offset="0" style="stop-color:#000;stop-opacity:0"/><stop id="stop5116" offset="1" style="stop-color:#000;stop-opacity:.4"/></linearGradient><linearGradient id="linearGradientKeybarFX" x1="15" x2="30" y1="15" y2="30" gradientUnits="userSpaceOnUse" xlink:href="#Keybar"/><linearGradient id="linearGradientPromptFX" x1="0" x2="30" y1="0" y2="30" gradientUnits="userSpaceOnUse" xlink:href="#Prompt"/><linearGradient id="linearGradientPanelsBackgroundFX" x1="0" x2="30" y1="0" y2="30" gradientUnits="userSpaceOnUse" xlink:href="#Panels"/><linearGradient id="linearGradientPanelsGridFX" x1="10" x2="30" y1="10" y2="30" gradientUnits="userSpaceOnUse" xlink:href="#Grid"/><linearGradient id="linearGradientPanelsHeadersFX" x1="10" x2="30" y1="10" y2="30" gradientUnits="userSpaceOnUse" xlink:href="#Grid"/><linearGradient id="linearGradientMessageBackgroundFX" x1="0" x2="30" y1="0" y2="30" gradientUnits="userSpaceOnUse" xlink:href="#Panels"/><linearGradient id="linearGradientMessageGridFX" x1="10" x2="30" y1="10" y2="30" gradientUnits="userSpaceOnUse" xlink:href="#Grid"/><filter style="color-interpolation-filters:sRGB" id="filterMainShadow"><feFlood id="feFloodMain" flood-color="#000" flood-opacity=".5" result="flood"/><feComposite id="feCompositeMain1" in="flood" in2="SourceGraphic" operator="in" result="composite1"/><feGaussianBlur id="feGaussianBlurMain" in="composite1" result="blur" stdDeviation="0"/><feOffset id="feOffsetMain" dx="1" dy="1" result="offset"/><feComposite id="feCompositeMain2" in="SourceGraphic" in2="offset" operator="over" result="composite2"/></filter><filter style="color-interpolation-filters:sRGB" id="filterMessageShadow" width="1.3" height="1.3"><feFlood id="feFloodMessage" flood-color="#000" flood-opacity=".5" result="flood"/><feComposite id="feCompositeMessage1" in="flood" in2="SourceGraphic" operator="in" result="composite1"/><feGaussianBlur id="feGaussianBlurMessage" in="composite1" result="blur" stdDeviation="0"/><feOffset id="feOffsetMessage" dx="1" dy="1" result="offset"/><feComposite id="feCompositeMessage2" in="SourceGraphic" in2="offset" operator="over" result="composite2"/></filter><path id="pathKeybar" d="m 26,28 h 4 v 2 h -4 z m -5,0 h 4 v 2 h -4 z m -5,0 h 4 v 2 h -4 z m -5,0 h 4 v 2 h -4 z m -5,0 h 4 v 2 H 6 Z m -5,0 h 4 v 2 H 1 Z"/><path id="pathPrompt" d="M 1,26 H 0 v 2 H 2 V 27 H 1 Z"/><path id="pathPanelsGrid" d="m 25,23 h 3 v 1 h -3 z m -2,0 h 1 v 1 h -1 z m -6,0 h 5 v 1 h -5 z m -6,0 h 3 v 1 H 11 M 8,24 H 2 v -1 h 6 m 1,0 v 1 h 1 V 23 M 26,9 h 2 v 1 H 26 Z M 28,7 V 8 H 26 V 7 Z M 26,5 h 2 v 1 h -2 z m -9,4 h 6 v 1 h -6 z m 0,-2 h 6 v 1 h -6 z m 0,-2 h 6 v 1 h -6 z m -3,9 v -1 h -2 v 1 m 0,-2 h 2 v -1 h -2 m 2,-2 v 1 H 12 V 9 Z M 14,7 V 8 H 12 V 7 Z M 14,5 V 6 H 12 V 5 Z M 2,13 h 7 v 1 H 2 m 7,-3 v 1 H 2 V 11 M 9,9 v 1 H 2 V 9 Z M 2,7 H 9 V 8 H 2 Z M 9,5 V 6 H 2 V 5 Z M 0,0 V 26 H 30 V 0 Z m 1,1 h 9 V 21 H 1 Z m 10,0 h 4 v 20 h -4 z m 5,0 h 8 v 20 h -8 z m 9,0 h 4 V 21 H 25 Z M 1,22 h 14 v 3 H 1 Z m 15,0 h 13 v 3 H 16 Z"/><path id="pathPanelsHeaders" d="m 26,2 h 2 V 3 H 26 Z M 12,2 h 2 v 1 h -2 z m 6,0 h 4 V 3 H 18 Z M 3,2 H 8 V 3 H 3 Z"/><path id="pathMessageGrid" d="m 16,15 h 2 v 1 h -2 z m -4,0 h 2 v 1 H 12 Z M 8,13 h 14 v 1 H 8 Z M 6,11 v 7 h 18 v -7 z m 17,1 v 5 H 7 v -5 c 0,0 12,0 16,0 z"/><rect id="rectBackground" width="30" height="30" x="0" y="0"/><rect id="rectPanelsBackground" width="30" height="26" x="0" y="0"/><rect id="rectMessageBackground" width="22" height="11" x="4" y="9"/></defs><metadata id="metadata"/><g id="layerBackground Fill"><use id="rectBackgroundFill" xlink:href="#rectBackground" style="filter:url(#filterMainShadow)"/></g><g id="layerKeybar"><g id="layerKeybarFill"><use id="pathKeybarFill" xlink:href="#pathKeybar" style="fill:#00c0c0"/></g><g id="layerKeybarFX"><use id="pathKeybarFX" xlink:href="#pathKeybar" style="fill:url(#linearGradientKeybarFX)"/></g></g><g id="layerPrompt"><g id="layerPromptFill"><use id="pathPromptFill" xlink:href="#pathPrompt" style="fill:#fff"/></g><g id="layerPromptFX"><use id="pathPromptFX" xlink:href="#pathPrompt" style="fill:url(#linearGradientPromptFX)"/></g></g><g id="layerPanels"><g id="layerPanelsBackground"><g id="layerPanelsBackgroundFill"><use id="rectPanelsBackgroundFill" xlink:href="#rectPanelsBackground" style="fill:#00f"/></g><g id="layerPanelsBackgroundFX"><use id="rectPanelsBackgroundFX" xlink:href="#rectPanelsBackground" style="fill:url(#linearGradientPanelsBackgroundFX)"/></g></g><g id="layerPanelsGrid"><g id="layerPanelsGridFill"><use id="pathPanelsGridFill" xlink:href="#pathPanelsGrid" style="fill:#0ff"/></g><g id="layerPanelsGridFX"><use id="pathPanelsGridFX" xlink:href="#pathPanelsGrid" style="fill:url(#linearGradientPanelsGridFX)"/></g></g><g id="layerPanelsHeaders"><g id="layerPanelsHeadersFill"><use id="pathPanelsHeadersFill" xlink:href="#pathPanelsHeaders" style="fill:#ff0"/></g><g id="layerPanelsHeadersFX"><use id="pathPanelsHeadersFX" xlink:href="#pathPanelsHeaders" style="fill:url(#linearGradientPanelsHeadersFX)"/></g></g></g><g id="layerMessage"><g id="layerMessageBackground"><g id="layerMessageBackgroundFill"><use id="rectMessageBackgroundFill" xlink:href="#rectMessageBackground" style="fill:red;filter:url(#filterMessageShadow)"/></g><g id="layerMessageBackgroundFX"><use id="rectMessageBackgroundFX" xlink:href="#rectMessageBackground" style="fill:url(#linearGradientMessageBackgroundFX)"/></g></g><g id="layerMessageGrid"><g id="layerMessageGridFill"><use id="pathMessageGridFill" xlink:href="#pathMessageGrid" style="fill:#fff"/></g><g id="layerMessageGridFX"><use id="pathMessageGridFX" xlink:href="#pathMessageGrid" style="fill:url(#linearGradientMessageGridFX)"/></g></g></g></svg>