<svg xmlns="http://www.w3.org/2000/svg" xmlns:svg="http://www.w3.org/2000/svg" xmlns:xlink="http://www.w3.org/1999/xlink" id="svg" width="48" height="48" version="1.1" viewBox="0 0 48 48"><defs id="defs"><linearGradient id="Prompt"><stop style="stop-color:#000;stop-opacity:0" id="stop5232" offset="0"/><stop style="stop-color:#000;stop-opacity:.5" id="stop5234" offset="1"/></linearGradient><linearGradient id="Keybar"><stop style="stop-color:#000;stop-opacity:.25" id="stop5220" offset="0"/><stop style="stop-color:#000;stop-opacity:.33333334" id="stop5222" offset="1"/></linearGradient><linearGradient id="Panels"><stop style="stop-color:#000;stop-opacity:0" id="stop5170" offset="0"/><stop style="stop-color:#000;stop-opacity:.5" id="stop5172" offset="1"/></linearGradient><linearGradient id="Grid"><stop id="stop5118" offset="0" style="stop-color:#000;stop-opacity:0"/><stop id="stop5116" offset="1" style="stop-color:#000;stop-opacity:.4"/></linearGradient><linearGradient id="linearGradientKeybarFX" x1="22" x2="45" y1="22" y2="45" gradientUnits="userSpaceOnUse" xlink:href="#Keybar"/><linearGradient id="linearGradientPromptFX" x1="0" x2="45" y1="0" y2="45" gradientUnits="userSpaceOnUse" xlink:href="#Prompt"/><linearGradient id="linearGradientPanelsBackgroundFX" x1="0" x2="45" y1="0" y2="45" gradientUnits="userSpaceOnUse" xlink:href="#Panels"/><linearGradient id="linearGradientPanelsGridFX" x1="15" x2="45" y1="15" y2="45" gradientUnits="userSpaceOnUse" xlink:href="#Grid"/><linearGradient id="linearGradientPanelsHeadersFX" x1="15" x2="45" y1="15" y2="45" gradientUnits="userSpaceOnUse" xlink:href="#Grid"/><linearGradient id="linearGradientMessageBackgroundFX" x1="0" x2="45" y1="0" y2="45" gradientUnits="userSpaceOnUse" xlink:href="#Panels"/><linearGradient id="linearGradientMessageGridFX" x1="15" x2="45" y1="15" y2="45" gradientUnits="userSpaceOnUse" xlink:href="#Grid"/><filter style="color-interpolation-filters:sRGB" id="filterMainShadow"><feFlood id="feFloodMain" flood-color="#000" flood-opacity=".5" result="flood"/><feComposite id="feCompositeMain1" in="flood" in2="SourceGraphic" operator="in" result="composite1"/><feGaussianBlur id="feGaussianBlurMain" in="composite1" result="blur" stdDeviation="0"/><feOffset id="feOffsetMain" dx="1" dy="1" result="offset"/><feComposite id="feCompositeMain2" in="SourceGraphic" in2="offset" operator="over" result="composite2"/></filter><filter style="color-interpolation-filters:sRGB" id="filterMessageShadow" width="1.3" height="1.3"><feFlood id="feFloodMessage" flood-color="#000" flood-opacity=".5" result="flood"/><feComposite id="feCompositeMessage1" in="flood" in2="SourceGraphic" operator="in" result="composite1"/><feGaussianBlur id="feGaussianBlurMessage" in="composite1" result="blur" stdDeviation="0"/><feOffset id="feOffsetMessage" dx="1" dy="1" result="offset"/><feComposite id="feCompositeMessage2" in="SourceGraphic" in2="offset" operator="over" result="composite2"/></filter><path id="pathKeybar" d="m 1,42 v 3 h 4 v -3 z m 5,0 v 3 h 4 v -3 z m 5,0 v 3 h 4 v -3 z m 5,0 v 3 h 4 v -3 z m 5,0 v 3 h 4 v -3 z m 5,0 v 3 h 4 v -3 z m 5,0 v 3 h 4 v -3 z m 5,0 v 3 h 4 v -3 z m 5,0 v 3 h 4 v -3 z"/><path id="pathPrompt" d="m 1,39 -1,-10e-7 V 42 H 3 V 41 H 2 V 40 H 1 Z"/><path id="pathPanelsGrid" d="M 0,0 V 39 H 45 V 0 Z M 1,1 H 14 V 32 H 1 Z m 14,0 h 7 v 31 h -7 z m 8,0 H 36 V 32 H 23 Z m 14,0 h 7 V 32 H 37 Z M 3,8 v 1 h 9 V 8 Z m 14,0 v 1 h 3 V 8 Z m 8,0 v 1 h 9 V 8 Z m 14,0 v 1 h 3 V 8 Z M 3,10 v 1 h 9 v -1 z m 14,0 v 1 h 3 v -1 z m 8,0 v 1 h 9 v -1 z m 14,0 v 1 h 3 V 10 Z M 3,12 v 1 h 9 v -1 z m 14,0 v 1 h 3 v -1 z m 8,0 v 1 h 9 v -1 z m 14,0 v 1 h 3 V 12 Z M 3,14 v 1 h 9 v -1 z m 14,0 v 1 h 3 v -1 z m 8,0 v 1 h 9 v -1 z m 14,0 v 1 h 3 V 14 Z M 3,16 v 1 h 9 v -1 z m 14,0 v 1 h 3 V 16 Z M 3,18 v 1 h 9 v -1 z m 14,0 v 1 h 3 V 18 Z M 3,20 v 1 h 9 v -1 z m 14,0 v 1 h 3 V 20 Z M 1,33 h 21 v 5 H 1 Z m 22,0 h 21 v 5 H 23 Z M 2,35 v 1 h 11 v -1 z m 12,0 v 1 h 1 v -1 z m 2,0 v 1 h 5 v -1 z m 8,0 v 1 h 10 v -1 z m 11,0 v 1 h 1 v -1 z m 2,0 v 1 h 6 v -1 z"/><path id="pathPanelsHeaders" d="m 39,4 h 3 V 5 H 39 Z M 17,4 h 3 v 1 h -3 z m 10,0 h 5 V 5 H 27 Z M 5,4 h 5 V 5 H 5 Z"/><path id="pathMessageGrid" d="M 9,15 V 25 H 36 V 15 Z m 1,1 h 25 v 8 H 10 Z m 2,1 v 1 h 21 v -1 z m 2,2 v 1 h 17 v -1 z m 4,3 v 1 h 4 v -1 z m 5,0 v 1 h 4 v -1 z"/><rect id="rectBackground" width="45" height="45" x="0" y="0"/><rect id="rectPanelsBackground" width="45" height="39" x="0" y="0"/><rect id="rectMessageBackground" width="33" height="16" x="6" y="12"/></defs><metadata id="metadata"/><g id="layerBackground Fill"><use id="rectBackgroundFill" xlink:href="#rectBackground" style="filter:url(#filterMainShadow)"/></g><g id="layerKeybar"><g id="layerKeybarFill"><use id="pathKeybarFill" xlink:href="#pathKeybar" style="fill:#00c0c0"/></g><g id="layerKeybarFX"><use id="pathKeybarFX" xlink:href="#pathKeybar" style="fill:url(#linearGradientKeybarFX)"/></g></g><g id="layerPrompt"><g id="layerPromptFill"><use id="pathPromptFill" xlink:href="#pathPrompt" style="fill:#fff"/></g><g id="layerPromptFX"><use id="pathPromptFX" xlink:href="#pathPrompt" style="fill:url(#linearGradientPromptFX)"/></g></g><g id="layerPanels"><g id="layerPanelsBackground"><g id="layerPanelsBackgroundFill"><use id="rectPanelsBackgroundFill" xlink:href="#rectPanelsBackground" style="fill:#00f"/></g><g id="layerPanelsBackgroundFX"><use id="rectPanelsBackgroundFX" xlink:href="#rectPanelsBackground" style="fill:url(#linearGradientPanelsBackgroundFX)"/></g></g><g id="layerPanelsGrid"><g id="layerPanelsGridFill"><use id="pathPanelsGridFill" xlink:href="#pathPanelsGrid" style="fill:#0ff"/></g><g id="layerPanelsGridFX"><use id="pathPanelsGridFX" xlink:href="#pathPanelsGrid" style="fill:url(#linearGradientPanelsGridFX)"/></g></g><g id="layerPanelsHeaders"><g id="layerPanelsHeadersFill"><use id="pathPanelsHeadersFill" xlink:href="#pathPanelsHeaders" style="fill:#ff0"/></g><g id="layerPanelsHeadersFX"><use id="pathPanelsHeadersFX" xlink:href="#pathPanelsHeaders" style="fill:url(#linearGradientPanelsHeadersFX)"/></g></g></g><g id="layerMessage"><g id="layerMessageBackground"><g id="layerMessageBackgroundFill"><use id="rectMessageBackgroundFill" xlink:href="#rectMessageBackground" style="fill:red;filter:url(#filterMessageShadow)"/></g><g id="layerMessageBackgroundFX"><use id="rectMessageBackgroundFX" xlink:href="#rectMessageBackground" style="fill:url(#linearGradientMessageBackgroundFX)"/></g></g><g id="layerMessageGrid"><g id="layerMessageGridFill"><use id="pathMessageGridFill" xlink:href="#pathMessageGrid" style="fill:#fff"/></g><g id="layerMessageGridFX"><use id="pathMessageGridFX" xlink:href="#pathMessageGrid" style="fill:url(#linearGradientMessageGridFX)"/></g></g></g></svg>